<svg xmlns="http://www.w3.org/2000/svg" xmlns:xlink="http://www.w3.org/1999/xlink" preserveAspectRatio="xMidYMid" width="171" height="107" viewBox="0 0 171 107">
  <defs>
    <style>

      .cls-3 {
        fill: #2d6891;
      }
    </style>
  </defs>
  <g id="komentarsvg">
    <path d="M36.008,89.000 C36.008,89.000 18.012,107.000 18.012,107.000 C18.012,107.000 18.012,89.000 18.012,89.000 C18.012,89.000 -0.000,89.000 -0.000,89.000 C-0.000,89.000 -0.000,-0.000 -0.000,-0.000 C-0.000,-0.000 171.000,-0.000 171.000,-0.000 C171.000,-0.000 171.000,89.000 171.000,89.000 C171.000,89.000 36.008,89.000 36.008,89.000 ZM166.000,5.000 C166.000,5.000 5.000,5.000 5.000,5.000 C5.000,5.000 5.000,84.000 5.000,84.000 C5.000,84.000 23.000,84.000 23.000,84.000 C23.000,84.000 23.000,95.000 23.000,95.000 C23.000,95.000 34.000,84.000 34.000,84.000 C34.000,84.000 166.000,84.000 166.000,84.000 C166.000,84.000 166.000,5.000 166.000,5.000 Z" id="path-1" class="cls-3" fill-rule="evenodd"/>
  </g>
</svg>
