<svg xmlns="http://www.w3.org/2000/svg" xmlns:xlink="http://www.w3.org/1999/xlink" preserveAspectRatio="xMidYMid" width="200" height="114" viewBox="0 0 200 114">
  <defs>
    <style>

      .cls-3 {
        fill: #ee455d;
      }
    </style>
  </defs>
  <g id="datasvg">
    <path d="M175.000,114.000 C175.000,114.000 25.000,114.000 25.000,114.000 C11.193,114.000 -0.000,102.807 -0.000,89.000 C-0.000,89.000 -0.000,81.000 -0.000,81.000 C-0.000,81.000 5.000,81.000 5.000,81.000 C5.000,81.000 5.000,88.000 5.000,88.000 C5.000,99.598 14.402,109.000 26.000,109.000 C26.000,109.000 174.000,109.000 174.000,109.000 C185.598,109.000 195.000,99.598 195.000,88.000 C195.000,88.000 195.000,81.000 195.000,81.000 C195.000,81.000 200.000,81.000 200.000,81.000 C200.000,81.000 200.000,89.000 200.000,89.000 C200.000,102.807 188.807,114.000 175.000,114.000 Z" id="path-1" class="cls-3" fill-rule="evenodd"/>
    <rect id="rect-1" class="cls-3" y="78" width="5" height="8" rx="2" ry="2"/>
    <rect id="rect-2" class="cls-3" x="195" y="78" width="5" height="8" rx="2" ry="2"/>
    <path d="M126.517,75.768 C126.517,75.768 101.768,100.516 101.768,100.516 C101.150,101.134 100.296,101.315 99.500,101.151 C98.704,101.315 97.850,101.134 97.232,100.516 C97.232,100.516 72.483,75.768 72.483,75.768 C71.507,74.791 71.507,73.208 72.483,72.232 C73.460,71.256 75.043,71.256 76.019,72.232 C76.019,72.232 97.000,93.213 97.000,93.213 C97.000,93.213 97.000,2.500 97.000,2.500 C97.000,1.119 98.119,-0.000 99.500,-0.000 C100.881,-0.000 102.000,1.119 102.000,2.500 C102.000,2.500 102.000,93.213 102.000,93.213 C102.000,93.213 122.981,72.232 122.981,72.232 C123.957,71.256 125.540,71.256 126.517,72.232 C127.493,73.208 127.493,74.791 126.517,75.768 Z" id="path-2" class="cls-3" fill-rule="evenodd"/>
  </g>
</svg>
