<svg xmlns="http://www.w3.org/2000/svg" xmlns:xlink="http://www.w3.org/1999/xlink" preserveAspectRatio="xMidYMid" width="177" height="101" viewBox="0 0 177 101">
  <defs>
    <style>

      .cls-3 {
        fill: #38b117;
      }
    </style>
  </defs>
  <g id="lupasvg">
    <path d="M176.727,99.011 C176.227,100.298 174.778,100.935 173.491,100.435 C173.491,100.435 95.735,70.216 95.735,70.216 C85.005,94.539 56.924,106.335 31.897,96.609 C6.158,86.605 -6.599,57.631 3.405,31.892 C13.408,6.154 42.382,-6.603 68.121,3.400 C93.007,13.072 105.753,40.479 97.529,65.549 C97.529,65.549 175.302,95.775 175.302,95.775 C176.589,96.275 177.227,97.724 176.727,99.011 ZM50.156,4.219 C24.751,4.219 4.156,24.814 4.156,50.219 C4.156,75.624 24.751,96.219 50.156,96.219 C75.561,96.219 96.156,75.624 96.156,50.219 C96.156,24.814 75.561,4.219 50.156,4.219 Z" id="path-1" class="cls-3" fill-rule="evenodd"/>
  </g>
</svg>
