<?xml version="1.0" encoding="utf-8"?>
<!-- Generator: Adobe Illustrator 18.1.0, SVG Export Plug-In . SVG Version: 6.00 Build 0)  -->
<svg version="1.1" id="Layer_1" xmlns="http://www.w3.org/2000/svg" xmlns:xlink="http://www.w3.org/1999/xlink" x="0px" y="0px"
	 width="182px" height="182px" viewBox="0 0 182 182" enable-background="new 0 0 182 182" xml:space="preserve">
<path fill="#204287" d="M144.3,18.5l-19,18.1c18,11.3,29.9,31.3,29.9,54.1c0,35.3-28.7,64-64.1,64s-64-28.7-64-64s27.5-64,62.9-64
	c7,0,13,1.1,19,3.3V3.5c-6-1.5-12-2.2-18.8-2.2C40.7,1.3,1.1,41.4,1.1,90.9s40.4,89.6,90,89.6c49.5,0,89.8-40.1,89.8-89.6
	C180.9,61.2,166.6,34.8,144.3,18.5z"/>
<ellipse fill="#B3509E" cx="91.2" cy="102.7" rx="52.5" ry="52.4"/>
</svg>
