<?xml version="1.0" encoding="utf-8"?> 
<!-- Generated by Layerhero SVG Exporter: http://www.layerhero.com/photoshop-svg-exporter -->
<!DOCTYPE svg PUBLIC "-//W3C//DTD SVG 1.1//EN" "http://www.w3.org/Graphics/SVG/1.1/DTD/svg11.dtd">
<svg version="1.1" baseProfile="full" xmlns="http://www.w3.org/2000/svg" xmlns:xlink="http://www.w3.org/1999/xlink" xmlns:ev="http://www.w3.org/2001/xml-events" width="412" height="194" viewBox="0 0 412 194">

<linearGradient id="PSgrad_0" x1="25.882%" x2="0%" y1="96.593%" y2="0%">
  <stop offset="0%" stop-color="rgb(237,205,28)" stop-opacity="NaN" />
  <stop offset="100%" stop-color="rgb(236,138,22)" stop-opacity="NaN" />
</linearGradient>
<linearGradient id="PSgrad_1" x1="25.882%" x2="0%" y1="96.593%" y2="0%">
  <stop offset="0%" stop-color="rgb(237,205,28)" stop-opacity="NaN" />
  <stop offset="100%" stop-color="rgb(236,138,22)" stop-opacity="NaN" />
</linearGradient>

<g transform="scale(NaN)" ><path fill-rule="evenodd"  opacity="0.09" fill="rgb( 0, 0, 0 )"
 d="M64.000,157.000 C64.000,157.000 27.000,194.000 27.000,194.000 C27.000,194.000 27.000,157.000 27.000,157.000 C27.000,157.000 7.000,157.000 7.000,157.000 C7.000,157.000 7.000,9.000 7.000,9.000 C7.000,9.000 412.000,9.000 412.000,9.000 C412.000,9.000 412.000,157.000 412.000,157.000 C412.000,157.000 64.000,157.000 64.000,157.000 Z"/>
<path fill-rule="evenodd"  fill="url(#PSgrad_1)"
 d="M57.000,147.000 C57.000,147.000 20.000,184.000 20.000,184.000 C20.000,184.000 20.000,147.000 20.000,147.000 C20.000,147.000 -0.000,147.000 -0.000,147.000 C-0.000,147.000 -0.000,0.000 -0.000,0.000 C-0.000,0.000 405.000,0.000 405.000,0.000 C405.000,0.000 405.000,147.000 405.000,147.000 C405.000,147.000 57.000,147.000 57.000,147.000 Z"/>
<path fill="url(#PSgrad_0)"
 d="M57.000,147.000 C57.000,147.000 20.000,184.000 20.000,184.000 C20.000,184.000 20.000,147.000 20.000,147.000 C20.000,147.000 -0.000,147.000 -0.000,147.000 C-0.000,147.000 -0.000,0.000 -0.000,0.000 C-0.000,0.000 405.000,0.000 405.000,0.000 C405.000,0.000 405.000,147.000 405.000,147.000 C405.000,147.000 57.000,147.000 57.000,147.000 Z"/>
</g></svg>
